{"title":"Knight.And.Day.2010.R5.LINE.H264.Feel-Free","uid":5837866,"size":1727200617,"categoryP":"video","categoryS":"movies","magnet":"?xt=urn:btih:8d070a137ca2511da8d25d3feaec29337dbd0b04&amp;dn=Knight.And.Day.2010.R5.LINE.H264.Feel-Free&amp;tr=udp%3A%2F%2Ftracker.openbittorrent.com%3A80&amp;tr=udp%3A%2F%2Fopen.demonii.com%3A1337&amp;tr=udp%3A%2F%2Ftracker.coppersurfer.tk%3A6969&amp;tr=udp%3A%2F%2Fexodus.desync.com%3A6969","seeders":0,"leechers":0,"uploader":"xenl","files":10,"time":1284801378,"description":"Knight.And.Day.2010.R5.LINE.H264.Feel-Free\n\nGenre:Thriller / Comedie / Actiune\nLanguage:English\nIMDb:http://www.imdb.com/title/tt1013743/\nSource:DVD5.RUS/LAP..Thanks\n\nGeneral\nComplete name :Knight.And.Day.2010.R5.LINE.H264.Feel-Free.mp4\nFormat : MPEG-4\nFormat profile : Base Media\nCodec ID : isom\nFile size : 1.61 GiB\nDuration : 1h 45mn\nOverall bit rate : 2 192 Kbps\nVideo #2\nID : 2\nFormat : AVC\nFormat/Info : Advanced Video Codec\nFormat profile : &lt;a class=&quot;__cf_email__&quot; href=&quot;/cdn-cgi/l/email-protection&quot; data-cfemail=&quot;1c5e7d6f79707572795c502f322c&quot;&gt;[email&amp;#160;protected]&lt;/a&gt;&lt;script data-cfhash='f9e31' type=&quot;text/javascript&quot;&gt;\n/* &lt;![CDATA[ */!function(){try{var t=&quot;currentScript&quot;in document?document.currentScript:function(){for(var t=document.getElementsByTagName(&quot;script&quot;),e=t.length;e--;)if(t[e].getAttribute(&quot;data-cfhash&quot;))return t[e]}();if(t&amp;&amp;t.previousSibling){var e,r,n,i,c=t.previousSibling,a=c.getAttribute(&quot;data-cfemail&quot;);if(a){for(e=&quot;&quot;,r=parseInt(a.substr(0,2),16),n=2;a.length-n;n+=2)i=parseInt(a.substr(n,2),16)^r,e+=String.fromCharCode(i);e=document.createTextNode(e),c.parentNode.replaceChild(e,c)}t.parentNode.removeChild(t);}}catch(u){}}()/* ]]&gt; */&lt;/script&gt;\nFormat settings, CABAC : No\nFormat settings, ReFrames : 1 frame\nMuxing mode : Container profile=&lt;a class=&quot;__cf_email__&quot; href=&quot;/cdn-cgi/l/email-protection&quot; data-cfemail=&quot;0547647660696c6b6045342b36&quot;&gt;[email&amp;#160;protected]&lt;/a&gt;&lt;script data-cfhash='f9e31' type=&quot;text/javascript&quot;&gt;\n/* &lt;![CDATA[ */!function(){try{var t=&quot;currentScript&quot;in document?document.currentScript:function(){for(var t=document.getElementsByTagName(&quot;script&quot;),e=t.length;e--;)if(t[e].getAttribute(&quot;data-cfhash&quot;))return t[e]}();if(t&amp;&amp;t.previousSibling){var e,r,n,i,c=t.previousSibling,a=c.getAttribute(&quot;data-cfemail&quot;);if(a){for(e=&quot;&quot;,r=parseInt(a.substr(0,2),16),n=2;a.length-n;n+=2)i=parseInt(a.substr(n,2),16)^r,e+=String.fromCharCode(i);e=document.createTextNode(e),c.parentNode.replaceChild(e,c)}t.parentNode.removeChild(t);}}catch(u){}}()/* ]]&gt; */&lt;/script&gt;\nCodec ID : avc1\nCodec ID/Info : Advanced Video Coding\nDuration : 1h 45mn\nBit rate mode : Variable\nBit rate : 2 025 Kbps\nWidth : 688 pixels\nHeight : 288 pixels\nDisplay aspect ratio : 2.35:1\nFrame rate mode : Constant\nFrame rate : 25.000 fps\nResolution : 24 bits\nColorimetry : 4:2:0\nScan type : Progressive\nBits/(Pixel*Frame) : 0.409\nStream size : 1.49 GiB (92%)\nAudio #1\nID : 1\nFormat : AAC\nFormat/Info : Advanced Audio Codec\nFormat version : Version 4\nFormat profile : LC\nFormat settings, SBR : No\nCodec ID : 40\nDuration : 1h 45mn\nBit rate mode : Constant\nBit rate : 160 Kbps\nChannel(s) : 2 channels\nChannel positions : L R\nSampling rate : 48.0 KHz\nResolution : 16 bits\nStream size : 120 MiB (7%)\n\nPlot\nJune Havens (Diaz) finds her everyday life tangled with that of a secret agent (Cruise) who has realized","torrent":{"xt":"urn:btih:8d070a137ca2511da8d25d3feaec29337dbd0b04","amp;dn":"Knight.And.Day.2010.R5.LINE.H264.Feel-Free","amp;tr":["udp%3A%2F%2Ftracker.openbittorrent.com%3A80","udp%3A%2F%2Fopen.demonii.com%3A1337","udp%3A%2F%2Ftracker.coppersurfer.tk%3A6969","udp%3A%2F%2Fexodus.desync.com%3A6969"],"infoHash":"8d070a137ca2511da8d25d3feaec29337dbd0b04","infoHashBuffer":{"type":"Buffer","data":[141,7,10,19,124,162,81,29,168,210,93,63,234,236,41,51,125,189,11,4]},"announce":[],"urlList":[]}}